<?xml version="1.0" encoding="UTF-8"?>
<svg id="Layer_1" data-name="Layer 1" xmlns="http://www.w3.org/2000/svg" width="1080" height="1080" viewBox="0 0 1080 1080">
  <defs>
    <style>
      .cls-1 {
        fill: #000;
        font-family: MyriadPro-Regular, 'Myriad Pro';
        font-size: 27.28px;
      }

      .cls-2 {
        fill: none;
        stroke: #fff;
        stroke-linecap: round;
        stroke-miterlimit: 10;
        stroke-width: 20px;
      }
    </style>
  </defs>
  <g>
    <text class="cls-1" transform="translate(1131.86 -237.83) rotate(5.86) scale(1.04 1)"><tspan x="0" y="0">G</tspan></text>
    <text class="cls-1" transform="translate(1149.37 -235.91) rotate(16.34) scale(1.04 1)"><tspan x="0" y="0">E</tspan></text>
    <text class="cls-1" transform="translate(1162.55 -232.07) rotate(25.86) scale(1.04 1)"><tspan x="0" y="0">T</tspan></text>
    <text class="cls-1" transform="translate(1174.74 -225.93) rotate(32.55) scale(1.04 1)"><tspan x="0" y="0"> </tspan></text>
    <text class="cls-1" transform="translate(1179.56 -222.89) rotate(36.82) scale(1.04 1)"><tspan x="0" y="0">I</tspan></text>
    <text class="cls-1" transform="translate(1184.79 -219.6) rotate(45.41) scale(1.04 1)"><tspan x="0" y="0">N</tspan></text>
    <text class="cls-1" transform="translate(1197.19 -206.42) rotate(53.93) scale(1.04 1)"><tspan x="0" y="0"> </tspan></text>
    <text class="cls-1" transform="translate(1200.03 -203.06) rotate(60.18) scale(1.04 1)"><tspan x="0" y="0">T</tspan></text>
    <text class="cls-1" transform="translate(1206.66 -192.38) rotate(71.7) scale(1.04 1)"><tspan x="0" y="0">O</tspan></text>
    <text class="cls-1" transform="translate(1212.56 -174.7) rotate(85.48) scale(1.04 1)"><tspan x="0" y="0">U</tspan></text>
    <text class="cls-1" transform="translate(1213.94 -157.26) rotate(98.01) scale(1.04 1)"><tspan x="0" y="0">C</tspan></text>
    <text class="cls-1" transform="translate(1211.99 -141.78) rotate(110.71) scale(1.04 1)"><tspan x="0" y="0">H</tspan></text>
  </g>
  <polyline class="cls-2" points="1023.89 825.67 1034.09 60.09 204.86 62.01"/>
  <line class="cls-2" x1="1034.09" y1="60.09" x2="42.03" y2="1018.86"/>
</svg>