<?xml version="1.0" encoding="UTF-8"?>
<svg id="Layer_1" data-name="Layer 1" xmlns="http://www.w3.org/2000/svg" viewBox="0 0 1059.28 1071">
  <defs>
    <style>
      .cls-1 {
        fill: #000;
        stroke-width: 0px;
      }
    </style>
  </defs>
  <g>
    <path class="cls-1" d="M744.65,656.43c-42.58,4.75-81.74-2.92-119.16-25.49,2.47,31.48,14.16,57.06,35.14,78.33,1.81,1.83,6.9,1.92,9.83.93,39.14-13.26,79.28-17.88,120.37-14.4,9.88.84,19.68,2.71,29.93,4.17-2.05,41.71-17.63,76.59-49.24,107.05h85.09v35.52H233v-35.16h85.38c-31.86-30.79-47.58-65.62-49.53-107.07,49.48-9.92,97.89-6.98,145.34,8.68,9.03,2.98,14.42,2.21,20.44-5.3,16.69-20.79,28.62-43.28,28.91-71.22-12.64,5.24-25.14,10.8-37.91,15.64-24.73,9.37-50.48,11.06-76.55,8.76-1.91-.17-4.9-4.17-5.01-6.5-3.46-77.22,19.78-141.93,87.13-186.23,12.78-8.41,24.56-18.4,36.35-28.19,4.54-3.77,8.1-8.84,11.67-13.63,7.09-9.52,8.41-17.85.9-29.48-18.02-27.87-29.04-58.54-25.63-92.69,3.62-36.21,29.11-67.08,63.56-77.3,36.4-10.8,74.61,1.3,98.01,30.67,21.47,26.95,24.75,57.5,14.98,88.93-6.15,19.8-17.2,38.04-25.27,57.3-1.75,4.17-1.79,10.56.19,14.51,9.36,18.66,24.1,33.09,41.7,43.55,59.53,35.38,92.98,86.54,97.13,156.07.76,12.66.61,25.37.8,38.06.02,1.27-.51,2.55-.92,4.49ZM561.83,474.64c2.1,68.86,87.55,148.34,147.33,145.54-.25-3.94-.38-7.87-.77-11.79-4.95-49.97-30.1-87.29-71.18-115.08-24.9-16.84-49.59-34.18-64.09-62.87-18.96,9.95-37.61,9.65-56.77.16-10.31,20.32-26.01,35.07-43.52,48.1-9.11,6.78-18.38,13.32-27.56,20.01-27.45,20.01-48.75,44.72-57.57,78.24-3.74,14.2-5.71,28.87-8.71,44.51,31.99-2.53,57.3-14.05,79.4-32.02,36.63-29.78,64.72-65.24,69.72-114.8h33.73ZM626.48,725.89c-20.09-23.69-32.48-52.52-36.63-84.65-1.85-14.33,1.33-30.23-3.82-42.98-5.23-12.95-18.09-22.75-27.22-34.23-5.03-6.33-9.27-13.3-13.36-19.26-13.36,16.79-25.87,33.22-39.23,48.93-4.51,5.3-6.47,10.17-5.93,16.99,2.44,30.75-4.04,59.82-18.46,86.94-5.69,10.7-12.97,20.56-18.14,28.64,28.1,22.6,55.46,44.6,80.98,65.13,26.45-21.18,53.66-42.97,81.81-65.51ZM489.62,315.42c2.28,24.55,12.24,50.71,31.41,72.79,15.79,18.19,31.57,18.29,47.29.13,18.86-21.79,30.04-47.4,31.48-76.27,1.56-31.24-23.55-56.84-54.43-57.12-31.05-.28-55.85,24.58-55.76,60.46ZM583.67,806.52c6,.34,9.19.68,12.37.69,26.37.03,52.75.05,79.12-.03,44.93-.14,76.17-22.45,97.44-60.58,2.47-4.43,3.9-9.45,6.32-15.44-76.26-2.84-139.75,21.89-195.25,75.36ZM503.86,807.25c-27.24-43.86-142.85-88.21-191.89-74.6,8.76,38.35,54.39,74.13,95.42,74.54,24.38.24,48.76.05,73.14.06,7.53,0,15.06,0,23.33,0Z"/>
    <path class="cls-1" d="M287.14,634.46c-9.92,4.07-20.3,8.34-30.66,12.59-58.64-131.47-8.46-310.82,136.52-388.47,5.57,10.01,11.15,20.04,16.23,29.18-126.79,85.75-167.21,200.29-122.09,346.7Z"/>
    <path class="cls-1" d="M680.32,287.74c5.17-9.3,10.62-19.1,16.06-28.89,134.13,69.3,198.89,243.11,137.05,388.33-10.6-4.34-21.22-8.7-30.89-12.66,44.78-145.87,4.98-260.63-122.22-346.78Z"/>
  </g>
  <path class="cls-1" d="M529.64,29c67.56,0,133.09,13.37,194.76,39.75,59.6,25.49,113.15,61.99,159.14,108.49,46.01,46.52,82.14,100.69,107.37,161.01,26.13,62.46,39.38,128.82,39.38,197.25s-13.25,134.79-39.38,197.25c-25.23,60.32-61.36,114.49-107.37,161.01-45.99,46.5-99.53,83-159.14,108.49-61.67,26.37-127.2,39.75-194.76,39.75s-133.09-13.37-194.76-39.75c-59.6-25.49-113.15-61.99-159.14-108.49-46.01-46.52-82.14-100.69-107.37-161.01-26.13-62.46-39.38-128.82-39.38-197.25s13.25-134.79,39.38-197.25c25.23-60.32,61.36-114.49,107.37-161.01,45.99-46.5,99.53-83,159.14-108.49,61.67-26.37,127.2-39.75,194.76-39.75M529.64,0C237.13,0,0,239.75,0,535.5s237.13,535.5,529.64,535.5,529.64-239.75,529.64-535.5S822.16,0,529.64,0h0Z"/>
</svg>