<?xml version="1.0" encoding="UTF-8"?>
<svg id="Layer_1" data-name="Layer 1" xmlns="http://www.w3.org/2000/svg" width="1080" height="1080" viewBox="0 0 1080 1080">
  <defs>
    <style>
      .cls-1 {
        fill: none;
        stroke: #020202;
        stroke-miterlimit: 10;
        stroke-width: 10px;
      }
    </style>
  </defs>
  <circle class="cls-1" cx="554.85" cy="528.24" r="237.29" transform="translate(-211.01 547.06) rotate(-45)"/>
  <path class="cls-1" d="M475.71,751.99c-15.4-9.11-41.62-27.51-61.73-59.91-45.63-73.52-17.99-151.71-16.34-156.14,3.15-8.46,32.34-83.06,108.93-105.3,14.97-4.35,56.11-15.6,99.86,5.45,52.8,25.41,67.47,77.71,68.99,83.52,2.39,9.09,17.05,64.97-19.97,107.12-4.48,5.1-36.39,40.22-83.52,34.5-32.37-3.93-67.89-26.65-76.25-63.55-.78-3.42-9.24-43.92,19.97-70.81,3.67-3.38,25.51-23.3,54.47-18.16,18.47,3.28,29.68,14.95,32.68,18.16,3.58,3.84,18.81,20.14,16.34,43.57-.32,3.01-3.67,30.39-27.23,39.94-11.45,4.64-30.91,6.38-43.57-7.26-10.89-11.73-12.59-30.35-3.63-45.39"/>
  <line class="cls-1" x1="504.04" y1="252.6" x2="473.45" y2="35.51"/>
  <line class="cls-1" x1="453.54" y1="265.99" x2="422.95" y2="162.8"/>
  <line class="cls-1" x1="554.85" y1="112.48" x2="554.85" y2="252.6"/>
  <line class="cls-1" x1="630.28" y1="73.45" x2="612.58" y2="252.16"/>
  <line class="cls-1" x1="328.06" y1="131.57" x2="410.37" y2="272.52"/>
  <line class="cls-1" x1="285.88" y1="214.39" x2="369.22" y2="309.56"/>
  <line class="cls-1" x1="158.31" y1="196.39" x2="332.18" y2="341.45"/>
  <line class="cls-1" x1="223.12" y1="333.22" x2="308.52" y2="384.66"/>
  <line class="cls-1" x1="114.07" y1="358.94" x2="285.88" y2="429.93"/>
  <line class="cls-1" x1="142.87" y1="457.71" x2="279.71" y2="472.11"/>
  <line class="cls-1" x1="32.95" y1="522.53" x2="279.71" y2="522.53"/>
  <line class="cls-1" x1="171.68" y1="592.49" x2="285.88" y2="577.06"/>
  <line class="cls-1" x1="114.07" y1="682" x2="285.88" y2="624.38"/>
  <line class="cls-1" x1="193.29" y1="729.32" x2="308.52" y2="666.57"/>
  <line class="cls-1" x1="158.31" y1="849.7" x2="332.18" y2="711.83"/>
  <line class="cls-1" x1="308.52" y1="811.63" x2="369.22" y2="745.79"/>
  <line class="cls-1" x1="327.55" y1="910.4" x2="409.34" y2="772.54"/>
  <line class="cls-1" x1="409.34" y1="910.4" x2="457.7" y2="786.94"/>
  <line class="cls-1" x1="457.7" y1="1024.22" x2="498.79" y2="805.94"/>
  <line class="cls-1" x1="554.85" y1="910.4" x2="554.85" y2="805.94"/>
  <line class="cls-1" x1="628.75" y1="972.49" x2="602.25" y2="805.94"/>
  <line class="cls-1" x1="686.78" y1="910.4" x2="652.72" y2="795.85"/>
  <line class="cls-1" x1="802.86" y1="966.18" x2="697.37" y2="772.54"/>
  <line class="cls-1" x1="786.46" y1="805.94" x2="732.21" y2="745.79"/>
  <line class="cls-1" x1="901.27" y1="821.08" x2="776.37" y2="711.83"/>
  <line class="cls-1" x1="907.58" y1="729.32" x2="795.29" y2="666.57"/>
  <line class="cls-1" x1="1024.92" y1="703.74" x2="823.05" y2="624.38"/>
  <line class="cls-1" x1="923.98" y1="592.49" x2="823.05" y2="577.06"/>
  <line class="cls-1" x1="1012.3" y1="528.24" x2="833.14" y2="528.24"/>
  <line class="cls-1" x1="956.79" y1="457.71" x2="833.14" y2="479.16"/>
  <line class="cls-1" x1="1024.92" y1="351.73" x2="810.43" y2="429.93"/>
  <line class="cls-1" x1="873.52" y1="333.22" x2="786.46" y2="384.66"/>
  <line class="cls-1" x1="894.97" y1="235.65" x2="770.06" y2="341.45"/>
  <line class="cls-1" x1="810.43" y1="214.39" x2="732.21" y2="305.05"/>
  <line class="cls-1" x1="802.86" y1="91.82" x2="697.37" y2="278.55"/>
  <line class="cls-1" x1="686.78" y1="170.05" x2="652.72" y2="259.72"/>
</svg>