<?xml version="1.0" encoding="UTF-8"?>
<svg id="Layer_1" data-name="Layer 1" xmlns="http://www.w3.org/2000/svg" width="1080" height="1080" viewBox="0 0 1080 1080">
  <defs>
    <style>
      .cls-1 {
        fill: none;
        stroke: #fff;
        stroke-miterlimit: 10;
        stroke-width: 10px;
      }
    </style>
  </defs>
  <circle class="cls-1" cx="569.85" cy="540.98" r="243.42" transform="translate(-215.62 561.39) rotate(-45)"/>
  <path class="cls-1" d="M488.66,770.51c-15.8-9.35-42.69-28.22-63.32-61.46-46.81-75.42-18.46-155.63-16.76-160.17,3.23-8.67,33.17-85.21,111.75-108.02,15.36-4.46,57.56-16.01,102.44,5.59,54.16,26.07,69.21,79.72,70.77,85.67,2.45,9.33,17.49,66.65-20.49,109.89-4.6,5.23-37.33,41.26-85.67,35.39-33.21-4.03-69.64-27.33-78.22-65.19-.8-3.51-9.48-45.05,20.49-72.64,3.77-3.47,26.17-23.9,55.87-18.62,18.95,3.37,30.45,15.33,33.52,18.62,3.68,3.93,19.3,20.66,16.76,44.7-.33,3.09-3.76,31.18-27.94,40.97-11.75,4.76-31.71,6.54-44.7-7.45-11.17-12.04-12.92-31.14-3.72-46.56"/>
  <line class="cls-1" x1="517.72" y1="258.21" x2="486.34" y2="35.51"/>
  <line class="cls-1" x1="465.91" y1="271.94" x2="434.53" y2="166.09"/>
  <line class="cls-1" x1="569.85" y1="114.47" x2="569.85" y2="258.21"/>
  <line class="cls-1" x1="647.22" y1="74.43" x2="629.07" y2="257.76"/>
  <line class="cls-1" x1="337.2" y1="134.05" x2="421.63" y2="278.65"/>
  <line class="cls-1" x1="293.92" y1="219.02" x2="379.41" y2="316.64"/>
  <line class="cls-1" x1="163.05" y1="200.54" x2="341.42" y2="349.36"/>
  <line class="cls-1" x1="229.54" y1="340.92" x2="317.14" y2="393.69"/>
  <line class="cls-1" x1="117.67" y1="367.3" x2="293.92" y2="440.13"/>
  <line class="cls-1" x1="147.22" y1="468.62" x2="287.59" y2="483.4"/>
  <line class="cls-1" x1="34.46" y1="535.11" x2="287.59" y2="535.11"/>
  <line class="cls-1" x1="176.77" y1="606.88" x2="293.92" y2="591.05"/>
  <line class="cls-1" x1="117.67" y1="698.71" x2="293.92" y2="639.6"/>
  <line class="cls-1" x1="198.94" y1="747.26" x2="317.14" y2="682.87"/>
  <line class="cls-1" x1="163.05" y1="870.74" x2="341.42" y2="729.31"/>
  <line class="cls-1" x1="317.14" y1="831.69" x2="379.41" y2="764.14"/>
  <line class="cls-1" x1="336.67" y1="933.01" x2="420.58" y2="791.58"/>
  <line class="cls-1" x1="420.58" y1="933.01" x2="470.18" y2="806.36"/>
  <line class="cls-1" x1="470.18" y1="1049.77" x2="512.34" y2="825.85"/>
  <line class="cls-1" x1="569.85" y1="933.01" x2="569.85" y2="825.85"/>
  <line class="cls-1" x1="645.65" y1="996.7" x2="618.47" y2="825.85"/>
  <line class="cls-1" x1="705.19" y1="933.01" x2="670.24" y2="815.5"/>
  <line class="cls-1" x1="824.26" y1="990.23" x2="716.04" y2="791.58"/>
  <line class="cls-1" x1="807.44" y1="825.85" x2="751.78" y2="764.14"/>
  <line class="cls-1" x1="925.22" y1="841.38" x2="797.08" y2="729.31"/>
  <line class="cls-1" x1="931.69" y1="747.26" x2="816.5" y2="682.87"/>
  <line class="cls-1" x1="1052.06" y1="721.01" x2="844.97" y2="639.6"/>
  <line class="cls-1" x1="948.52" y1="606.88" x2="844.97" y2="591.05"/>
  <line class="cls-1" x1="1039.12" y1="540.98" x2="855.33" y2="540.98"/>
  <line class="cls-1" x1="982.17" y1="468.62" x2="855.33" y2="490.63"/>
  <line class="cls-1" x1="1052.06" y1="359.9" x2="832.03" y2="440.13"/>
  <line class="cls-1" x1="896.75" y1="340.92" x2="807.44" y2="393.69"/>
  <line class="cls-1" x1="918.75" y1="240.83" x2="790.61" y2="349.36"/>
  <line class="cls-1" x1="832.03" y1="219.02" x2="751.78" y2="312.01"/>
  <line class="cls-1" x1="824.26" y1="93.28" x2="716.04" y2="284.83"/>
  <line class="cls-1" x1="705.19" y1="173.52" x2="670.24" y2="265.52"/>
</svg>